<mxfile host="app.diagrams.net" agent="Mozilla/5.0 (Windows NT 10.0; Win64; x64) AppleWebKit/537.36 (KHTML, like Gecko) Chrome/109.0.0.0 Safari/537.36" version="26.1.2">
  <diagram name="第 1 页" id="RH0tSU8NZPtwCRjwQ6UL">
    <mxGraphModel dx="1434" dy="756" grid="1" gridSize="10" guides="1" tooltips="1" connect="1" arrows="1" fold="1" page="1" pageScale="1" pageWidth="827" pageHeight="1169" math="0" shadow="0">
      <root>
        <mxCell id="0" />
        <mxCell id="1" parent="0" />
        <mxCell id="wkv6HlbV0oYVvR-uYz5N-26" value="" style="rounded=0;whiteSpace=wrap;html=1;" vertex="1" parent="1">
          <mxGeometry x="57" y="280" width="686" height="590" as="geometry" />
        </mxCell>
        <mxCell id="wkv6HlbV0oYVvR-uYz5N-24" style="edgeStyle=orthogonalEdgeStyle;rounded=0;orthogonalLoop=1;jettySize=auto;html=1;exitX=0.5;exitY=1;exitDx=0;exitDy=0;entryX=0.5;entryY=0;entryDx=0;entryDy=0;shadow=1;curved=0;shape=flexArrow;endArrow=block;" edge="1" parent="1" source="wkv6HlbV0oYVvR-uYz5N-2" target="wkv6HlbV0oYVvR-uYz5N-7">
          <mxGeometry relative="1" as="geometry" />
        </mxCell>
        <mxCell id="wkv6HlbV0oYVvR-uYz5N-2" value="&lt;font style=&quot;font-size: 20px;&quot;&gt;&lt;font style=&quot;&quot;&gt;第一章&lt;/font&gt;&lt;font style=&quot;&quot;&gt; 绪论&lt;/font&gt;&lt;/font&gt;" style="rounded=1;whiteSpace=wrap;html=1;" vertex="1" parent="1">
          <mxGeometry x="250" y="310" width="300" height="60" as="geometry" />
        </mxCell>
        <mxCell id="wkv6HlbV0oYVvR-uYz5N-31" style="edgeStyle=orthogonalEdgeStyle;rounded=0;orthogonalLoop=1;jettySize=auto;html=1;exitX=0.5;exitY=1;exitDx=0;exitDy=0;shape=flexArrow;" edge="1" parent="1" source="wkv6HlbV0oYVvR-uYz5N-7" target="wkv6HlbV0oYVvR-uYz5N-8">
          <mxGeometry relative="1" as="geometry" />
        </mxCell>
        <mxCell id="wkv6HlbV0oYVvR-uYz5N-7" value="&lt;font style=&quot;font-size: 20px;&quot;&gt;第二章 预备知识与概念&lt;/font&gt;" style="rounded=1;whiteSpace=wrap;html=1;" vertex="1" parent="1">
          <mxGeometry x="250" y="410" width="300" height="60" as="geometry" />
        </mxCell>
        <mxCell id="wkv6HlbV0oYVvR-uYz5N-10" value="&lt;font style=&quot;font-size: 20px;&quot;&gt;第五章 总结与展望&lt;/font&gt;" style="rounded=1;whiteSpace=wrap;html=1;" vertex="1" parent="1">
          <mxGeometry x="250" y="760" width="300" height="60" as="geometry" />
        </mxCell>
        <mxCell id="wkv6HlbV0oYVvR-uYz5N-19" value="" style="group" vertex="1" connectable="0" parent="1">
          <mxGeometry x="157.5" y="490" width="485" height="240" as="geometry" />
        </mxCell>
        <mxCell id="wkv6HlbV0oYVvR-uYz5N-13" value="" style="endArrow=none;dashed=1;html=1;dashPattern=1 3;strokeWidth=2;rounded=0;" edge="1" parent="wkv6HlbV0oYVvR-uYz5N-19">
          <mxGeometry width="50" height="50" relative="1" as="geometry">
            <mxPoint x="5" y="240" as="sourcePoint" />
            <mxPoint x="5" as="targetPoint" />
          </mxGeometry>
        </mxCell>
        <mxCell id="wkv6HlbV0oYVvR-uYz5N-14" value="" style="endArrow=none;dashed=1;html=1;dashPattern=1 3;strokeWidth=2;rounded=0;" edge="1" parent="wkv6HlbV0oYVvR-uYz5N-19">
          <mxGeometry width="50" height="50" relative="1" as="geometry">
            <mxPoint x="485" as="sourcePoint" />
            <mxPoint as="targetPoint" />
          </mxGeometry>
        </mxCell>
        <mxCell id="wkv6HlbV0oYVvR-uYz5N-15" value="" style="endArrow=none;dashed=1;html=1;dashPattern=1 3;strokeWidth=2;rounded=0;" edge="1" parent="wkv6HlbV0oYVvR-uYz5N-19">
          <mxGeometry width="50" height="50" relative="1" as="geometry">
            <mxPoint x="485" y="240" as="sourcePoint" />
            <mxPoint y="240" as="targetPoint" />
          </mxGeometry>
        </mxCell>
        <mxCell id="wkv6HlbV0oYVvR-uYz5N-16" value="" style="endArrow=none;dashed=1;html=1;dashPattern=1 3;strokeWidth=2;rounded=0;" edge="1" parent="wkv6HlbV0oYVvR-uYz5N-19">
          <mxGeometry width="50" height="50" relative="1" as="geometry">
            <mxPoint x="485" y="240" as="sourcePoint" />
            <mxPoint x="485" as="targetPoint" />
          </mxGeometry>
        </mxCell>
        <mxCell id="wkv6HlbV0oYVvR-uYz5N-28" style="edgeStyle=orthogonalEdgeStyle;rounded=0;orthogonalLoop=1;jettySize=auto;html=1;entryX=0.5;entryY=0;entryDx=0;entryDy=0;shape=flexArrow;" edge="1" parent="wkv6HlbV0oYVvR-uYz5N-19" source="wkv6HlbV0oYVvR-uYz5N-8" target="wkv6HlbV0oYVvR-uYz5N-9">
          <mxGeometry relative="1" as="geometry" />
        </mxCell>
        <mxCell id="wkv6HlbV0oYVvR-uYz5N-8" value="&lt;font style=&quot;font-size: 20px;&quot;&gt;第三章 分割联邦学习优化方法&lt;/font&gt;" style="rounded=1;whiteSpace=wrap;html=1;" vertex="1" parent="wkv6HlbV0oYVvR-uYz5N-19">
          <mxGeometry x="92.5" y="55" width="300" height="60" as="geometry" />
        </mxCell>
        <mxCell id="wkv6HlbV0oYVvR-uYz5N-9" value="&lt;font style=&quot;font-size: 20px;&quot;&gt;第四章 实验分析&lt;/font&gt;" style="rounded=1;whiteSpace=wrap;html=1;" vertex="1" parent="wkv6HlbV0oYVvR-uYz5N-19">
          <mxGeometry x="92.5" y="160" width="300" height="60" as="geometry" />
        </mxCell>
        <mxCell id="wkv6HlbV0oYVvR-uYz5N-18" value="&lt;b&gt;&lt;font style=&quot;font-size: 20px;&quot;&gt;本&lt;/font&gt;&lt;font style=&quot;background-color: transparent; font-size: 20px;&quot;&gt;文&lt;/font&gt;&lt;font style=&quot;background-color: transparent; font-size: 20px;&quot;&gt;主&lt;/font&gt;&lt;font style=&quot;background-color: transparent; font-size: 20px;&quot;&gt;要&amp;nbsp; &amp;nbsp; &amp;nbsp; &amp;nbsp;&amp;nbsp;&lt;/font&gt;&lt;font style=&quot;background-color: transparent; font-size: 20px;&quot;&gt;研&lt;/font&gt;&lt;font style=&quot;background-color: transparent; font-size: 20px;&quot;&gt;究&lt;/font&gt;&lt;font style=&quot;background-color: transparent; font-size: 20px;&quot;&gt;内&lt;/font&gt;&lt;span style=&quot;background-color: transparent; font-size: 20px;&quot;&gt;容&lt;/span&gt;&lt;/b&gt;" style="text;html=1;align=center;verticalAlign=middle;whiteSpace=wrap;rounded=0;horizontal=1;" vertex="1" parent="wkv6HlbV0oYVvR-uYz5N-19">
          <mxGeometry x="132.5" width="220" height="55" as="geometry" />
        </mxCell>
        <mxCell id="wkv6HlbV0oYVvR-uYz5N-30" style="edgeStyle=orthogonalEdgeStyle;rounded=0;orthogonalLoop=1;jettySize=auto;html=1;exitX=0.5;exitY=1;exitDx=0;exitDy=0;shape=flexArrow;" edge="1" parent="1" source="wkv6HlbV0oYVvR-uYz5N-9" target="wkv6HlbV0oYVvR-uYz5N-10">
          <mxGeometry relative="1" as="geometry" />
        </mxCell>
      </root>
    </mxGraphModel>
  </diagram>
</mxfile>
